<svg width="175" height="175" viewBox="0 0 175 175" fill="none" xmlns="http://www.w3.org/2000/svg">
<path d="M87.5 7.86133C61.6752 7.86133 40.6738 28.8627 40.6738 54.6875V54.6902C40.6868 69.1353 47.3778 82.7183 58.7057 91.5554L39.8101 167.139H135.19L116.271 91.4642C127.577 82.6328 134.305 69.1175 134.326 54.6923V54.6875C134.326 28.8627 113.325 7.86133 87.5 7.86133ZM87.5 14.0137C109.998 14.0137 128.171 32.185 128.174 54.6827C128.164 61.1693 126.604 67.5594 123.621 73.3199C120.639 79.0803 116.322 84.0437 111.031 87.796L109.317 89.0128L127.31 160.986H47.6899L65.677 89.0367L63.9635 87.8206C58.6704 84.0661 54.3528 79.0992 51.3714 73.3351C48.3901 67.571 46.8316 61.177 46.8262 54.6875V54.6848C46.8276 32.1863 65.0009 14.0137 87.5 14.0137ZM92.4588 29.2886C91.781 29.2852 91.1032 29.2875 90.4251 29.2988C79.961 29.4646 69.5106 31.4272 59.0858 35.0308C57.8348 36.8139 56.7533 38.7119 55.8804 40.7073C55.4792 41.5468 55.1181 42.4049 54.7983 43.2787C65.3454 38.9095 75.8222 36.3197 86.2391 35.6306C77.4392 37.5002 70.7933 45.3479 70.7933 54.6878C70.7933 65.4114 79.5526 74.1703 90.2757 74.1703C101 74.1703 109.758 65.4114 109.758 54.6878C109.758 45.0225 102.642 36.9568 93.3861 35.4583C101.847 35.6098 110.297 37.0361 118.754 39.8104C117.329 36.9339 115.489 34.2573 113.329 31.8609C106.388 30.1875 99.4284 29.3351 92.4591 29.2893L92.4588 29.2886ZM90.2754 41.3574C97.6743 41.3574 103.605 47.289 103.605 54.6875C103.605 62.086 97.6743 68.0176 90.2754 68.0176C82.8772 68.0176 76.9453 62.086 76.9453 54.6875C76.9453 53.1515 77.2051 51.6797 77.6768 50.3101C77.9605 50.574 78.2595 50.8108 78.5644 51.0063C79.9343 51.8854 81.5288 52.2949 83.2388 52.2949C84.9488 52.2949 86.544 51.8854 87.9133 51.0063C89.2825 50.1279 90.5762 48.5352 90.5762 46.4844C90.5762 44.4336 89.2828 42.8408 87.9136 41.9624C87.7482 41.8569 87.5795 41.758 87.4077 41.6657C88.3499 41.4611 89.3113 41.3578 90.2754 41.3574ZM55.0994 66.3065C56.23 69.4179 57.7767 72.381 59.689 75.0719C72.3229 80.2057 84.5548 83.3024 96.3146 83.854C99.7743 84.0164 103.192 83.9491 106.559 83.6445C109.554 81.6129 112.192 79.0952 114.408 76.2446C108.687 77.5387 102.756 77.997 96.6027 77.7089C83.6931 77.1039 69.7717 73.0625 55.099 66.3065H55.0994Z" fill="black"/>
</svg>
